<svg xmlns="http://www.w3.org/2000/svg" xmlns:xlink="http://www.w3.org/1999/xlink" xmlns:lucid="lucid" width="2380" height="1413"><g transform="translate(220 2660)" lucid:page-tab-id="0_0"><path d="M-200-2634c0-3.3 2.7-6 6-6h708c3.3 0 6 2.7 6 6v263.33c0 3.32-2.7 6-6 6h-708c-3.3 0-6-2.68-6-6z" stroke="#5e5e5e" stroke-width="3" fill="#fff"/><use xlink:href="#a" transform="matrix(1,0,0,1,-195,-2635) translate(140.48148148148147 92.54166666666667)"/><use xlink:href="#b" transform="matrix(1,0,0,1,-195,-2635) translate(424.6296296296296 92.54166666666667)"/><use xlink:href="#c" transform="matrix(1,0,0,1,-195,-2635) translate(302.91975308641975 136.9861111111111)"/><use xlink:href="#d" transform="matrix(1,0,0,1,-195,-2635) translate(176.74074074074082 169.87499999999997)"/><use xlink:href="#e" transform="matrix(1,0,0,1,-195,-2635) translate(306.962962962963 169.87499999999997)"/><use xlink:href="#f" transform="matrix(1,0,0,1,-195,-2635) translate(344 169.87499999999997)"/><use xlink:href="#g" transform="matrix(1,0,0,1,-195,-2635) translate(86.00000000000011 201.87499999999994)"/><use xlink:href="#h" transform="matrix(1,0,0,1,-195,-2635) translate(182.07407407407413 201.87499999999994)"/><use xlink:href="#i" transform="matrix(1,0,0,1,-195,-2635) translate(267.70370370370375 201.87499999999994)"/><use xlink:href="#j" transform="matrix(1,0,0,1,-195,-2635) translate(348.962962962963 201.87499999999994)"/><use xlink:href="#k" transform="matrix(1,0,0,1,-195,-2635) translate(536.6666666666666 201.87499999999994)"/><path d="M1303-2574c0-3.3 2.7-6 6-6h268c3.32 0 6 2.7 6 6v68c0 3.3-2.68 6-6 6h-268c-3.3 0-6-2.7-6-6z" stroke="#5e5e5e" stroke-width="3" fill="#fff"/><path d="M1303-2542.4h280" stroke="#5e5e5e" stroke-width="3" fill="none"/><use xlink:href="#l" transform="matrix(1,0,0,1,1311.010732743071,-2572) translate(84.55 14.6)"/><path d="M764.57-1610.5c0-3.3 2.68-6 6-6h288c3.3 0 6 2.7 6 6v68c0 3.3-2.7 6-6 6h-288c-3.32 0-6-2.7-6-6z" stroke="#5e5e5e" stroke-width="3" fill="#fff"/><path d="M764.57-1578.9h300" stroke="#5e5e5e" stroke-width="3" fill="none"/><use xlink:href="#m" transform="matrix(1,0,0,1,772.5669291338581,-1608.5) translate(95.1 14.6)"/><path d="M1143-2334c0-3.3 2.7-6 6-6h148c3.32 0 6 2.7 6 6v68c0 3.3-2.68 6-6 6h-148c-3.3 0-6-2.7-6-6z" stroke="#5e5e5e" stroke-width="3" fill="#fff"/><use xlink:href="#n" transform="matrix(1,0,0,1,1151.010732743071,-2332) translate(23.944444444444443 23.111111111111114)"/><use xlink:href="#o" transform="matrix(1,0,0,1,1151.010732743071,-2332) translate(1.7222222222222285 49.77777777777778)"/><path d="M1583-2334c0-3.3 2.7-6 6-6h148c3.32 0 6 2.7 6 6v68c0 3.3-2.68 6-6 6h-148c-3.3 0-6-2.7-6-6z" stroke="#5e5e5e" stroke-width="3" fill="#fff"/><use xlink:href="#p" transform="matrix(1,0,0,1,1591.010732743071,-2332) translate(11.567901234567891 36.44444444444444)"/><path d="M1363-2334c0-3.3 2.7-6 6-6h148c3.32 0 6 2.7 6 6v68c0 3.3-2.68 6-6 6h-148c-3.3 0-6-2.7-6-6z" stroke="#5e5e5e" stroke-width="3" fill="#fff"/><use xlink:href="#q" transform="matrix(1,0,0,1,1371.010732743071,-2332) translate(18.97530864197531 23.111111111111114)"/><use xlink:href="#r" transform="matrix(1,0,0,1,1371.010732743071,-2332) translate(29.469135802469133 49.77777777777778)"/><path d="M1980-1790.5c0-3.3 2.7-6 6-6h148c3.3 0 6 2.7 6 6v68c0 3.3-2.7 6-6 6h-148c-3.3 0-6-2.7-6-6z" stroke="#5e5e5e" stroke-width="3" fill="#fff"/><path d="M1980-1758.9h160" stroke="#5e5e5e" stroke-width="3" fill="none"/><use xlink:href="#s" transform="matrix(1,0,0,1,1988,-1788.5) translate(17.124999999999993 14.6)"/><path d="M-180-1907c0-3.3 2.7-6 6-6h288c3.3 0 6 2.7 6 6v68c0 3.3-2.7 6-6 6h-288c-3.3 0-6-2.7-6-6z" stroke="#5e5e5e" stroke-width="3" fill="#fff"/><path d="M-180-1875.4h300" stroke="#5e5e5e" stroke-width="3" fill="none"/><use xlink:href="#t" transform="matrix(1,0,0,1,-172,-1905) translate(108.1 14.6)"/><path d="M520-1341c0-3.3 2.7-6 6-6h188c3.3 0 6 2.7 6 6v68c0 3.3-2.7 6-6 6H526c-3.3 0-6-2.7-6-6z" stroke="#5e5e5e" stroke-width="3" fill="#fff"/><path d="M520-1309.4h200" stroke="#5e5e5e" stroke-width="3" fill="none"/><use xlink:href="#u" transform="matrix(1,0,0,1,528,-1339) translate(20.64999999999999 14.6)"/><use xlink:href="#v" transform="matrix(1,0,0,1,528,-1339) translate(109.45 14.6)"/><path d="M1109.13-1790.5c0-3.3 2.7-6 6-6h202.57c3.3 0 6 2.7 6 6v75c0 3.3-2.7 6-6 6h-202.57c-3.3 0-6-2.7-6-6z" stroke="#5e5e5e" stroke-width="3" fill="#fff"/><path d="M1109.13-1758.9h214.57" stroke="#5e5e5e" stroke-width="3" fill="none"/><use xlink:href="#w" transform="matrix(1,0,0,1,1117.1338582677163,-1788.5) translate(70.025 14.6)"/><path d="M804.57-1341c0-3.3 2.68-6 6-6h208c3.3 0 6 2.7 6 6v68c0 3.3-2.7 6-6 6h-208c-3.32 0-6-2.7-6-6z" stroke="#5e5e5e" stroke-width="3" fill="#fff"/><path d="M804.57-1309.4h220" stroke="#5e5e5e" stroke-width="3" fill="none"/><use xlink:href="#x" transform="matrix(1,0,0,1,812.5669291338581,-1339) translate(50.7 14.6)"/><use xlink:href="#y" transform="matrix(1,0,0,1,812.5669291338581,-1339) translate(101.30000000000001 14.6)"/><path d="M1109.13-1341c0-3.3 2.7-6 6-6h188c3.32 0 6 2.7 6 6v68c0 3.3-2.68 6-6 6h-188c-3.3 0-6-2.7-6-6z" stroke="#5e5e5e" stroke-width="3" fill="#fff"/><path d="M1109.13-1309.4h200" stroke="#5e5e5e" stroke-width="3" fill="none"/><use xlink:href="#z" transform="matrix(1,0,0,1,1117.1338582677163,-1339) translate(44.574999999999996 14.6)"/><path d="M740-2174c0-3.3 2.7-6 6-6h268c3.3 0 6 2.7 6 6v68c0 3.3-2.7 6-6 6H746c-3.3 0-6-2.7-6-6z" stroke="#5e5e5e" stroke-width="3" fill="#fff"/><path d="M740-2142.4h280" stroke="#5e5e5e" stroke-width="3" fill="none"/><use xlink:href="#A" transform="matrix(1,0,0,1,748,-2172) translate(62.69999999999999 14.6)"/><path d="M764.57-1914c0-3.3 2.68-6 6-6h288c3.3 0 6 2.7 6 6v82c0 3.3-2.7 6-6 6h-288c-3.32 0-6-2.7-6-6z" stroke="#5e5e5e" stroke-width="3" fill="#fff"/><path d="M764.57-1869.07h300" stroke="#5e5e5e" stroke-width="3" fill="none"/><use xlink:href="#B" transform="matrix(1,0,0,1,772.5669291338581,-1912) translate(66.95802469135805 23.322222222222223)"/><path d="M914.57-1349.5v-161.02" stroke="#5e5e5e" stroke-width="2" fill="none"/><path d="M915.57-1348.5h-2v-1.03h2z" fill="#5e5e5e"/><path d="M914.57-1533.04l12.72 21.52h-25.46z" stroke="#5e5e5e" stroke-width="2" fill="#fff"/><path d="M620-1349.5v-74.5c0-3.3 2.7-6 6-6h576.6c3.3 0 6 2.7 6 6v74.5" stroke="#5e5e5e" stroke-width="2" fill="none"/><path d="M621-1348.5h-2v-1.03h2zM1209.6-1348.5h-2v-1.03h2zM915.57-1619h-2v-110.7h2zm0-132.02h-2V-1806h2z" fill="#5e5e5e"/><path d="M915.57-1618h-2v-1.03h2zM919.2-1807h-9.27l4.64-14.26z" fill="#5e5e5e"/><path d="M920.58-1806h-12.02l6-18.5zm-9.27-2h6.53l-3.26-10.03z" fill="#5e5e5e"/><use xlink:href="#C" transform="matrix(1,0,0,1,863.2829785165742,-1751.0208918255187) translate(0 14.222222222222223)"/><use xlink:href="#D" transform="matrix(1,0,0,1,863.2829785165742,-1751.0208918255187) translate(63.1604938271605 14.222222222222223)"/><path d="M1523-1790.5c0-3.3 2.7-6 6-6h202.58c3.3 0 6 2.7 6 6v75c0 3.3-2.7 6-6 6H1529c-3.3 0-6-2.7-6-6z" stroke="#5e5e5e" stroke-width="3" fill="#fff"/><path d="M1523-1758.9h214.58" stroke="#5e5e5e" stroke-width="3" fill="none"/><use xlink:href="#E" transform="matrix(1,0,0,1,1531.010732743071,-1788.5) translate(53.599999999999994 14.6)"/><path d="M563.9-1582.63l.73 2.64 1.78 1.8 2.65.7h193.02v2h-193.3l-3.4-.92-2.53-2.53-.93-3.42v-419.47h2zM1123-2299H569.06l-2.64.7-1.77 1.8-.72 2.63v270.7h-2v-270.96l.94-3.42 2.53-2.53 3.4-.92h554.24z" fill="#5e5e5e"/><path d="M763.07-1575.5h-1.03v-2h1.03zM1138.27-2300l-14.26 4.64v-9.28z" fill="#5e5e5e"/><path d="M1141.5-2300l-18.5 6v-12zm-16.5 3.26l10.04-3.26-10.03-3.26z" fill="#5e5e5e"/><use xlink:href="#F" transform="matrix(1,0,0,1,500.32219192483524,-2023.1706036745402) translate(0 14.222222222222223)"/><use xlink:href="#G" transform="matrix(1,0,0,1,500.32219192483524,-2023.1706036745402) translate(44.39506172839507 14.222222222222223)"/><use xlink:href="#H" transform="matrix(1,0,0,1,500.32219192483524,-2023.1706036745402) translate(85.7777777777778 14.222222222222223)"/><path d="M1812-1752h-71.92v-2H1812zm148-3.5h-54.42v-2H1960z" fill="#5e5e5e"/><path d="M1740.1-1752h-1.02v-2h1.02zM1975.26-1756.5l-14.26 4.64v-9.28z" fill="#5e5e5e"/><path d="M1978.5-1756.5l-18.5 6v-12zm-16.5 3.26l10.03-3.26-10.03-3.26z" fill="#5e5e5e"/><use xlink:href="#I" transform="matrix(1,0,0,1,1811.9987074147455,-1765.4166666666667) translate(0 14.222222222222223)"/><use xlink:href="#J" transform="matrix(1,0,0,1,1811.9987074147455,-1765.4166666666667) translate(72.88888888888889 14.222222222222223)"/><path d="M1128-1575.5h-60.93v-2H1128zm87.07-6.87l-.93 3.42-2.53 2.53-3.4.92h-25.93v-2h25.66l2.65-.7 1.77-1.8.72-2.63v-106.87h2z" fill="#5e5e5e"/><path d="M1067.1-1575.5h-1.03v-2h1.02zM1218.7-1690.5h-9.27l4.64-14.26z" fill="#5e5e5e"/><path d="M1220.08-1689.5h-12.02l6-18.5zm-9.27-2h6.53l-3.26-10.03z" fill="#5e5e5e"/><use xlink:href="#K" transform="matrix(1,0,0,1,1127.998055798581,-1587.1666666666667) translate(0 14.222222222222223)"/><path d="M1411.55-1752h-85.35v-2h85.35zm91.46 0h-67.84v-2H1503z" fill="#5e5e5e"/><path d="M1326.23-1752h-1.03v-2h1.03zM1518.27-1753l-14.26 4.64v-9.28z" fill="#5e5e5e"/><path d="M1521.5-1753l-18.5 6v-12zm-16.5 3.26l10.04-3.26-10.03-3.26z" fill="#5e5e5e"/><use xlink:href="#L" transform="matrix(1,0,0,1,1411.5532908695911,-1763.6666666666667) translate(0 14.222222222222223)"/><path d="M1443-2342.5v-131.52" stroke="#5e5e5e" stroke-width="2" fill="none"/><path d="M1444-2341.5h-2v-1.03h2z" fill="#5e5e5e"/><path d="M1443-2496.54l12.74 21.52h-25.46z" stroke="#5e5e5e" stroke-width="2" fill="#fff"/><path d="M1211.37-2056.76c2.8-1.8 7.3-1.8 10.1 0l83.54 53.52c2.8 1.8 2.8 4.7 0 6.48l-83.53 53.52c-2.8 1.8-7.3 1.8-10.1 0l-83.54-53.52c-2.8-1.8-2.8-4.7 0-6.48z" stroke="#5e5e5e" stroke-width="3" fill="#fff"/><use xlink:href="#M" transform="matrix(1,0,0,1,1127.7755905511808,-2055) translate(47.17783950617283 59.02777777777778)"/><path d="M1223-2257.5v198.94" stroke="#5e5e5e" stroke-width="2" fill="none"/><path d="M1224-2257.47h-2v-1.03h2zM1224-2056.92l-1.75-1.13-.24-.13v-.4h2z" fill="#5e5e5e"/><path d="M1663-2257.5v251.5c0 3.3-2.68 6-6 6h-347.58" stroke="#5e5e5e" stroke-width="2" fill="none"/><path d="M1664-2257.47h-2v-1.03h2zM1309.44-1999h-.94l-.17-2h1.1z" fill="#5e5e5e"/><path d="M1216.42-1939.45V-1799" stroke="#5e5e5e" stroke-width="2" fill="none"/><path d="M1217-1940.4l.42-.07v1.05h-2v-1.1zM1217.42-1798h-2v-1.03h2z" fill="#5e5e5e"/><path d="M1223-2342.5v-61.5c0-3.3 2.7-6 6-6h427.5c3.3 0 6 2.7 6 6v61.5" stroke="#5e5e5e" stroke-width="2" fill="none"/><path d="M1224-2341.5h-2v-1.03h2zM1663.5-2341.5h-2v-1.03h2zM1941-1878.87l-.92 3.42-2.53 2.53-3.42.92h-867.06v-2h866.8l2.64-.7 1.8-1.8.7-2.63v-401.84h2zm-3.45-661.2l2.53 2.52.92 3.42v231.83h-2v-231.57l-.7-2.64-1.8-1.8-2.63-.7H1603v-2h331.13zM1602-2535.36l-14.25-4.64 14.26-4.64z" fill="#5e5e5e"/><path d="M1603-2534l-18.5-6 18.5-6zm-12.02-6l10.03 3.26v-6.52zM1067.1-1872h-1.03v-2h1.02z" fill="#5e5e5e"/><use xlink:href="#N" transform="matrix(1,0,0,1,1924.716049382716,-2302.302481360794) translate(0 14.222222222222223)"/><path d="M1443-2257.5v111.5c0 3.3-2.68 6-6 6h-397" stroke="#5e5e5e" stroke-width="2" fill="none"/><path d="M1444-2257.47h-2v-1.03h2z" fill="#5e5e5e"/><path d="M1024.74-2140l14.26-4.64v9.28z" stroke="#5e5e5e" stroke-width="2" fill="#5e5e5e"/><path d="M315.2-1929.4c2.65-2 6.95-2 9.6 0l70.4 52.8c2.65 2 2.65 5.2 0 7.2l-70.4 52.8c-2.65 2-6.95 2-9.6 0l-70.4-52.8c-2.65-2-2.65-5.2 0-7.2z" stroke="#5e5e5e" stroke-width="3" fill="#fff"/><g><use xlink:href="#O" transform="matrix(1,0,0,1,245,-1928) translate(28.12228395061728 59.02777777777778)"/></g><path d="M737.5-2139H326.13l-2.64.7-1.8 1.8-.7 2.63v200.54h-2v-200.8l.92-3.42 2.53-2.53 3.42-.92H737.5z" fill="#5e5e5e"/><path d="M738.5-2139h-1.03v-2h1.03zM321-1932.3l-2-.05v-1h2z" fill="#5e5e5e"/><path d="M122.5-1873h117.9" stroke="#5e5e5e" stroke-width="2" fill="none"/><path d="M122.53-1872h-1.03v-2h1.03zM241.28-1873.6l.28 1.6h-1.2v-2h1.1z" fill="#5e5e5e"/><path d="M399.6-1873h362.47" stroke="#5e5e5e" stroke-width="2" fill="none"/><path d="M399.64-1872h-1.1l.18-.4-.28-1.6h1.2zM763.07-1872h-1.03v-2h1.03z" fill="#5e5e5e"/><path d="M1400-2474c0-3.3 2.7-6 6-6h228c3.3 0 6 2.7 6 6v48c0 3.3-2.7 6-6 6h-228c-3.3 0-6-2.7-6-6z" stroke="#000" stroke-opacity="0" stroke-width="3" fill="#fff" fill-opacity="0"/><g><use xlink:href="#P" transform="matrix(1,0,0,1,1405,-2475) translate(47.808641975308646 30.27777777777778)"/><use xlink:href="#Q" transform="matrix(1,0,0,1,1405,-2475) translate(150.15432098765433 30.27777777777778)"/></g><path d="M900-1474c0-3.3 2.7-6 6-6h228c3.3 0 6 2.7 6 6v48c0 3.3-2.7 6-6 6H906c-3.3 0-6-2.7-6-6z" stroke="#000" stroke-opacity="0" stroke-width="3" fill="#fff" fill-opacity="0"/><g><use xlink:href="#R" transform="matrix(1,0,0,1,905,-1475) translate(31.358024691358025 30.27777777777778)"/><use xlink:href="#S" transform="matrix(1,0,0,1,905,-1475) translate(44.93827160493827 30.27777777777778)"/><use xlink:href="#T" transform="matrix(1,0,0,1,905,-1475) translate(160.4320987654321 30.27777777777778)"/><use xlink:href="#U" transform="matrix(1,0,0,1,905,-1475) translate(191.23456790123456 30.27777777777778)"/></g><defs><path fill="#333" d="M212-179c-10-28-35-45-73-45-59 0-87 40-87 99 0 60 29 101 89 101 43 0 62-24 78-52l27 14C228-24 195 4 139 4 59 4 22-46 18-125c-6-104 99-153 187-111 19 9 31 26 39 46" id="V"/><path fill="#333" d="M100-194c62-1 85 37 85 99 1 63-27 99-86 99S16-35 15-95c0-66 28-99 85-99zM99-20c44 1 53-31 53-75 0-43-8-75-51-75s-53 32-53 75 10 74 51 75" id="W"/><path fill="#333" d="M117-194c89-4 53 116 60 194h-32v-121c0-31-8-49-39-48C34-167 62-67 57 0H25l-1-190h30c1 10-1 24 2 32 11-22 29-35 61-36" id="X"/><path fill="#333" d="M135-143c-3-34-86-38-87 0 15 53 115 12 119 90S17 21 10-45l28-5c4 36 97 45 98 0-10-56-113-15-118-90-4-57 82-63 122-42 12 7 21 19 24 35" id="Y"/><path fill="#333" d="M100-194c63 0 86 42 84 106H49c0 40 14 67 53 68 26 1 43-12 49-29l28 8c-11 28-37 45-77 45C44 4 14-33 15-96c1-61 26-98 85-98zm52 81c6-60-76-77-97-28-3 7-6 17-6 28h103" id="Z"/><path fill="#333" d="M115-194c55 1 70 41 70 98S169 2 115 4C84 4 66-9 55-30l1 105H24l-1-265h31l2 30c10-21 28-34 59-34zm-8 174c40 0 45-34 45-75s-6-73-45-74c-42 0-51 32-51 76 0 43 10 73 51 73" id="aa"/><path fill="#333" d="M59-47c-2 24 18 29 38 22v24C64 9 27 4 27-40v-127H5v-23h24l9-43h21v43h35v23H59v120" id="ab"/><path fill="#333" d="M84 4C-5 8 30-112 23-190h32v120c0 31 7 50 39 49 72-2 45-101 50-169h31l1 190h-30c-1-10 1-25-2-33-11 22-28 36-60 37" id="ac"/><path fill="#333" d="M141-36C126-15 110 5 73 4 37 3 15-17 15-53c-1-64 63-63 125-63 3-35-9-54-41-54-24 1-41 7-42 31l-33-3c5-37 33-52 76-52 45 0 72 20 72 64v82c-1 20 7 32 28 27v20c-31 9-61-2-59-35zM48-53c0 20 12 33 32 33 41-3 63-29 60-74-43 2-92-5-92 41" id="ad"/><path fill="#333" d="M24 0v-261h32V0H24" id="ae"/><g id="a"><use transform="matrix(0.14814814814814817,0,0,0.14814814814814817,0,0)" xlink:href="#V"/><use transform="matrix(0.14814814814814817,0,0,0.14814814814814817,38.370370370370374,0)" xlink:href="#W"/><use transform="matrix(0.14814814814814817,0,0,0.14814814814814817,68,0)" xlink:href="#X"/><use transform="matrix(0.14814814814814817,0,0,0.14814814814814817,97.62962962962962,0)" xlink:href="#Y"/><use transform="matrix(0.14814814814814817,0,0,0.14814814814814817,124.29629629629632,0)" xlink:href="#Z"/><use transform="matrix(0.14814814814814817,0,0,0.14814814814814817,153.92592592592592,0)" xlink:href="#aa"/><use transform="matrix(0.14814814814814817,0,0,0.14814814814814817,183.55555555555554,0)" xlink:href="#ab"/><use transform="matrix(0.14814814814814817,0,0,0.14814814814814817,198.37037037037035,0)" xlink:href="#ac"/><use transform="matrix(0.14814814814814817,0,0,0.14814814814814817,228,0)" xlink:href="#ad"/><use transform="matrix(0.14814814814814817,0,0,0.14814814814814817,257.6296296296296,0)" xlink:href="#ae"/></g><path fill="#333" d="M210-169c-67 3-38 105-44 169h-31v-121c0-29-5-50-35-48C34-165 62-65 56 0H25l-1-190h30c1 10-1 24 2 32 10-44 99-50 107 0 11-21 27-35 58-36 85-2 47 119 55 194h-31v-121c0-29-5-49-35-48" id="af"/><path fill="#333" d="M85-194c31 0 48 13 60 33l-1-100h32l1 261h-30c-2-10 0-23-3-31C134-8 116 4 85 4 32 4 16-35 15-94c0-66 23-100 70-100zm9 24c-40 0-46 34-46 75 0 40 6 74 45 74 42 0 51-32 51-76 0-42-9-74-50-73" id="ag"/><g id="b"><use transform="matrix(0.14814814814814817,0,0,0.14814814814814817,0,0)" xlink:href="#af"/><use transform="matrix(0.14814814814814817,0,0,0.14814814814814817,44.296296296296305,0)" xlink:href="#W"/><use transform="matrix(0.14814814814814817,0,0,0.14814814814814817,73.92592592592594,0)" xlink:href="#ag"/><use transform="matrix(0.14814814814814817,0,0,0.14814814814814817,103.55555555555557,0)" xlink:href="#Z"/><use transform="matrix(0.14814814814814817,0,0,0.14814814814814817,133.18518518518522,0)" xlink:href="#ae"/></g><path fill="#333" d="M30-248c87 1 191-15 191 75 0 78-77 80-158 76V0H30v-248zm33 125c57 0 124 11 124-50 0-59-68-47-124-48v98" id="ah"/><path fill="#333" d="M114-163C36-179 61-72 57 0H25l-1-190h30c1 12-1 29 2 39 6-27 23-49 58-41v29" id="ai"/><path fill="#333" d="M24-231v-30h32v30H24zM-9 49c24 4 33-6 33-30v-209h32V24c2 40-23 58-65 49V49" id="aj"/><path fill="#333" d="M143 0L79-87 56-68V0H24v-261h32v163l83-92h37l-77 82L181 0h-38" id="ak"/><g id="c"><use transform="matrix(0.08024691358024688,0,0,0.08024691358024688,0,0)" xlink:href="#ah"/><use transform="matrix(0.08024691358024688,0,0,0.08024691358024688,19.259259259259252,0)" xlink:href="#ai"/><use transform="matrix(0.08024691358024688,0,0,0.08024691358024688,28.808641975308632,0)" xlink:href="#W"/><use transform="matrix(0.08024691358024688,0,0,0.08024691358024688,44.858024691358004,0)" xlink:href="#Y"/><use transform="matrix(0.08024691358024688,0,0,0.08024691358024688,59.302469135802454,0)" xlink:href="#aj"/><use transform="matrix(0.08024691358024688,0,0,0.08024691358024688,65.64197530864196,0)" xlink:href="#Z"/><use transform="matrix(0.08024691358024688,0,0,0.08024691358024688,81.69135802469134,0)" xlink:href="#ak"/><use transform="matrix(0.08024691358024688,0,0,0.08024691358024688,96.13580246913578,0)" xlink:href="#ab"/></g><path fill="#333" d="M30-248c118-7 216 8 213 122C240-48 200 0 122 0H30v-248zM63-27c89 8 146-16 146-99s-60-101-146-95v194" id="al"/><path fill="#333" d="M115-194c53 0 69 39 70 98 0 66-23 100-70 100C84 3 66-7 56-30L54 0H23l1-261h32v101c10-23 28-34 59-34zm-8 174c40 0 45-34 45-75 0-40-5-75-45-74-42 0-51 32-51 76 0 43 10 73 51 73" id="am"/><g id="d"><use transform="matrix(0.07407407407407404,0,0,0.07407407407407404,0,0)" xlink:href="#al"/><use transform="matrix(0.07407407407407404,0,0,0.07407407407407404,19.185185185185176,0)" xlink:href="#ad"/><use transform="matrix(0.07407407407407404,0,0,0.07407407407407404,33.999999999999986,0)" xlink:href="#ab"/><use transform="matrix(0.07407407407407404,0,0,0.07407407407407404,41.40740740740739,0)" xlink:href="#ad"/><use transform="matrix(0.07407407407407404,0,0,0.07407407407407404,56.2222222222222,0)" xlink:href="#am"/><use transform="matrix(0.07407407407407404,0,0,0.07407407407407404,71.03703703703701,0)" xlink:href="#ad"/><use transform="matrix(0.07407407407407404,0,0,0.07407407407407404,85.85185185185182,0)" xlink:href="#Y"/><use transform="matrix(0.07407407407407404,0,0,0.07407407407407404,99.18518518518515,0)" xlink:href="#Z"/><use transform="matrix(0.07407407407407404,0,0,0.07407407407407404,113.99999999999996,0)" xlink:href="#ai"/></g><path fill="#333" d="M177-190C167-65 218 103 67 71c-23-6-38-20-44-43l32-5c15 47 100 32 89-28v-30C133-14 115 1 83 1 29 1 15-40 15-95c0-56 16-97 71-98 29-1 48 16 59 35 1-10 0-23 2-32h30zM94-22c36 0 50-32 50-73 0-42-14-75-50-75-39 0-46 34-46 75s6 73 46 73" id="an"/><g id="e"><use transform="matrix(0.07407407407407404,0,0,0.07407407407407404,0,0)" xlink:href="#W"/><use transform="matrix(0.07407407407407404,0,0,0.07407407407407404,14.814814814814808,0)" xlink:href="#an"/></g><path fill="#333" d="M24-231v-30h32v30H24zM24 0v-190h32V0H24" id="ao"/><g id="f"><use transform="matrix(0.07407407407407404,0,0,0.07407407407407404,0,0)" xlink:href="#ag"/><use transform="matrix(0.07407407407407404,0,0,0.07407407407407404,14.814814814814808,0)" xlink:href="#ad"/><use transform="matrix(0.07407407407407404,0,0,0.07407407407407404,29.629629629629616,0)" xlink:href="#ab"/><use transform="matrix(0.07407407407407404,0,0,0.07407407407407404,37.03703703703702,0)" xlink:href="#ad"/><use transform="matrix(0.07407407407407404,0,0,0.07407407407407404,51.851851851851826,0)" xlink:href="#af"/><use transform="matrix(0.07407407407407404,0,0,0.07407407407407404,73.99999999999997,0)" xlink:href="#W"/><use transform="matrix(0.07407407407407404,0,0,0.07407407407407404,88.81481481481478,0)" xlink:href="#ag"/><use transform="matrix(0.07407407407407404,0,0,0.07407407407407404,103.62962962962959,0)" xlink:href="#Z"/><use transform="matrix(0.07407407407407404,0,0,0.07407407407407404,118.4444444444444,0)" xlink:href="#ae"/><use transform="matrix(0.07407407407407404,0,0,0.07407407407407404,124.29629629629625,0)" xlink:href="#ae"/><use transform="matrix(0.07407407407407404,0,0,0.07407407407407404,130.1481481481481,0)" xlink:href="#Z"/><use transform="matrix(0.07407407407407404,0,0,0.07407407407407404,144.9629629629629,0)" xlink:href="#ai"/><use transform="matrix(0.07407407407407404,0,0,0.07407407407407404,153.77777777777771,0)" xlink:href="#ao"/><use transform="matrix(0.07407407407407404,0,0,0.07407407407407404,159.62962962962956,0)" xlink:href="#X"/><use transform="matrix(0.07407407407407404,0,0,0.07407407407407404,174.44444444444437,0)" xlink:href="#an"/></g><path fill="#333" d="M127-220V0H93v-220H8v-28h204v28h-85" id="ap"/><g id="g"><use transform="matrix(0.07407407407407404,0,0,0.07407407407407404,0,0)" xlink:href="#ap"/><use transform="matrix(0.07407407407407404,0,0,0.07407407407407404,13.25925925925925,0)" xlink:href="#W"/><use transform="matrix(0.07407407407407404,0,0,0.07407407407407404,28.074074074074062,0)" xlink:href="#ai"/><use transform="matrix(0.07407407407407404,0,0,0.07407407407407404,36.88888888888887,0)" xlink:href="#af"/><use transform="matrix(0.07407407407407404,0,0,0.07407407407407404,59.03703703703701,0)" xlink:href="#W"/><use transform="matrix(0.07407407407407404,0,0,0.07407407407407404,73.85185185185182,0)" xlink:href="#ag"/></g><path fill="#333" d="M240 0l2-218c-23 76-54 145-80 218h-23L58-218 59 0H30v-248h44l77 211c21-75 51-140 76-211h43V0h-30" id="aq"/><path fill="#333" d="M85 4C-4 8 31-112 24-190h32v120c0 31 7 50 39 49 72-2 45-101 50-169h31l1 190h-30c-1-10 1-25-2-33-11 22-28 36-60 37zm34-218v-33h29v33h-29zm-69 0v-33h29v33H50" id="ar"/><path fill="#333" d="M68-38c1 34 0 65-14 84H32c9-13 17-26 17-46H33v-38h35" id="as"/><g id="h"><use transform="matrix(0.07407407407407404,0,0,0.07407407407407404,0,0)" xlink:href="#aq"/><use transform="matrix(0.07407407407407404,0,0,0.07407407407407404,22.148148148148138,0)" xlink:href="#ar"/><use transform="matrix(0.07407407407407404,0,0,0.07407407407407404,36.96296296296295,0)" xlink:href="#ae"/><use transform="matrix(0.07407407407407404,0,0,0.07407407407407404,42.814814814814795,0)" xlink:href="#ae"/><use transform="matrix(0.07407407407407404,0,0,0.07407407407407404,48.66666666666664,0)" xlink:href="#Z"/><use transform="matrix(0.07407407407407404,0,0,0.07407407407407404,63.48148148148145,0)" xlink:href="#ai"/><use transform="matrix(0.07407407407407404,0,0,0.07407407407407404,70.81481481481478,0)" xlink:href="#as"/></g><g id="i"><use transform="matrix(0.07407407407407404,0,0,0.07407407407407404,0,0)" xlink:href="#aq"/><use transform="matrix(0.07407407407407404,0,0,0.07407407407407404,22.148148148148138,0)" xlink:href="#ad"/><use transform="matrix(0.07407407407407404,0,0,0.07407407407407404,36.96296296296295,0)" xlink:href="#ai"/><use transform="matrix(0.07407407407407404,0,0,0.07407407407407404,45.77777777777776,0)" xlink:href="#ab"/><use transform="matrix(0.07407407407407404,0,0,0.07407407407407404,53.18518518518516,0)" xlink:href="#ao"/><use transform="matrix(0.07407407407407404,0,0,0.07407407407407404,59.03703703703701,0)" xlink:href="#X"/></g><path fill="#333" d="M197 0v-115H63V0H30v-248h33v105h134v-105h34V0h-34" id="at"/><g id="j"><use transform="matrix(0.07407407407407404,0,0,0.07407407407407404,0,0)" xlink:href="#at"/><use transform="matrix(0.07407407407407404,0,0,0.07407407407407404,19.185185185185176,0)" xlink:href="#W"/><use transform="matrix(0.07407407407407404,0,0,0.07407407407407404,33.999999999999986,0)" xlink:href="#ae"/><use transform="matrix(0.07407407407407404,0,0,0.07407407407407404,39.85185185185183,0)" xlink:href="#ab"/><use transform="matrix(0.07407407407407404,0,0,0.07407407407407404,47.25925925925924,0)" xlink:href="#af"/><use transform="matrix(0.07407407407407404,0,0,0.07407407407407404,69.40740740740738,0)" xlink:href="#W"/><use transform="matrix(0.07407407407407404,0,0,0.07407407407407404,84.22222222222219,0)" xlink:href="#X"/><use transform="matrix(0.07407407407407404,0,0,0.07407407407407404,99.037037037037,0)" xlink:href="#as"/><use transform="matrix(0.07407407407407404,0,0,0.07407407407407404,106.4444444444444,0)" xlink:href="#aq"/><use transform="matrix(0.07407407407407404,0,0,0.07407407407407404,128.59259259259255,0)" xlink:href="#ad"/><use transform="matrix(0.07407407407407404,0,0,0.07407407407407404,143.40740740740736,0)" xlink:href="#ai"/><use transform="matrix(0.07407407407407404,0,0,0.07407407407407404,152.22222222222214,0)" xlink:href="#ab"/><use transform="matrix(0.07407407407407404,0,0,0.07407407407407404,159.62962962962956,0)" xlink:href="#ao"/><use transform="matrix(0.07407407407407404,0,0,0.07407407407407404,165.4814814814814,0)" xlink:href="#X"/></g><path fill="#333" d="M33 0v-248h34V0H33" id="au"/><path fill="#333" d="M108 0H70L1-190h34L89-25l56-165h34" id="av"/><g id="k"><use transform="matrix(0.07407407407407404,0,0,0.07407407407407404,0,0)" xlink:href="#au"/><use transform="matrix(0.07407407407407404,0,0,0.07407407407407404,7.407407407407404,0)" xlink:href="#av"/><use transform="matrix(0.07407407407407404,0,0,0.07407407407407404,20.740740740740733,0)" xlink:href="#Z"/><use transform="matrix(0.07407407407407404,0,0,0.07407407407407404,35.555555555555536,0)" xlink:href="#ai"/><use transform="matrix(0.07407407407407404,0,0,0.07407407407407404,44.370370370370345,0)" xlink:href="#Y"/><use transform="matrix(0.07407407407407404,0,0,0.07407407407407404,57.703703703703674,0)" xlink:href="#Z"/><use transform="matrix(0.07407407407407404,0,0,0.07407407407407404,72.51851851851848,0)" xlink:href="#X"/></g><path d="M24 0v-248h195v40H76v63h132v40H76v65h150V0H24" id="aw"/><path d="M220-157c-53 9-28 100-34 157h-49v-107c1-27-5-49-29-50C55-147 81-57 75 0H25l-1-190h47c2 12-1 28 3 38 10-53 101-56 108 0 13-22 24-43 59-42 82 1 51 116 57 194h-49v-107c-1-25-5-48-29-50" id="ax"/><path d="M135-194c53 0 70 44 70 98 0 56-19 98-73 100-31 1-45-17-59-34 3 33 2 69 2 105H25l-1-265h48c2 10 0 23 3 31 11-24 29-35 60-35zM114-30c33 0 39-31 40-66 0-38-9-64-40-64-56 0-55 130 0 130" id="ay"/><path d="M25 0v-261h50V0H25" id="az"/><path d="M110-194c64 0 96 36 96 99 0 64-35 99-97 99-61 0-95-36-95-99 0-62 34-99 96-99zm-1 164c35 0 45-28 45-65 0-40-10-65-43-65-34 0-45 26-45 65 0 36 10 65 43 65" id="aA"/><path d="M123 10C108 53 80 86 19 72V37c35 8 53-11 59-39L3-190h52l48 148c12-52 28-100 44-148h51" id="aB"/><path d="M185-48c-13 30-37 53-82 52C43 2 14-33 14-96s30-98 90-98c62 0 83 45 84 108H66c0 31 8 55 39 56 18 0 30-7 34-22zm-45-69c5-46-57-63-70-21-2 6-4 13-4 21h74" id="aC"/><path d="M137-138c1-29-70-34-71-4 15 46 118 7 119 86 1 83-164 76-172 9l43-7c4 19 20 25 44 25 33 8 57-30 24-41C81-84 22-81 20-136c-2-80 154-74 161-7" id="aD"/><g id="l"><use transform="matrix(0.05,0,0,0.05,0,0)" xlink:href="#aw"/><use transform="matrix(0.05,0,0,0.05,12,0)" xlink:href="#ax"/><use transform="matrix(0.05,0,0,0.05,28,0)" xlink:href="#ay"/><use transform="matrix(0.05,0,0,0.05,38.95,0)" xlink:href="#az"/><use transform="matrix(0.05,0,0,0.05,43.95,0)" xlink:href="#aA"/><use transform="matrix(0.05,0,0,0.05,54.900000000000006,0)" xlink:href="#aB"/><use transform="matrix(0.05,0,0,0.05,64.9,0)" xlink:href="#aC"/><use transform="matrix(0.05,0,0,0.05,74.9,0)" xlink:href="#aC"/><use transform="matrix(0.05,0,0,0.05,84.9,0)" xlink:href="#aD"/></g><path d="M67-125c0 53 21 87 73 88 37 1 54-22 65-47l45 17C233-25 199 4 140 4 58 4 20-42 15-125 8-235 124-281 211-232c18 10 29 29 36 50l-46 12c-8-25-30-41-62-41-52 0-71 34-72 86" id="aE"/><path d="M85 4C-2 5 27-109 22-190h50c7 57-23 150 33 157 60-5 35-97 40-157h50l1 190h-47c-2-12 1-28-3-38-12 25-28 42-61 42" id="aF"/><path d="M115-3C79 11 28 4 28-45v-112H4v-33h27l15-45h31v45h36v33H77v99c-1 23 16 31 38 25v30" id="aG"/><path d="M135-150c-39-12-60 13-60 57V0H25l-1-190h47c2 13-1 29 3 40 6-28 27-53 61-41v41" id="aH"/><g id="m"><use transform="matrix(0.05,0,0,0.05,0,0)" xlink:href="#aE"/><use transform="matrix(0.05,0,0,0.05,12.950000000000001,0)" xlink:href="#aF"/><use transform="matrix(0.05,0,0,0.05,23.900000000000002,0)" xlink:href="#aD"/><use transform="matrix(0.05,0,0,0.05,33.900000000000006,0)" xlink:href="#aG"/><use transform="matrix(0.05,0,0,0.05,39.85000000000001,0)" xlink:href="#aA"/><use transform="matrix(0.05,0,0,0.05,50.80000000000001,0)" xlink:href="#ax"/><use transform="matrix(0.05,0,0,0.05,66.80000000000001,0)" xlink:href="#aC"/><use transform="matrix(0.05,0,0,0.05,76.80000000000001,0)" xlink:href="#aH"/><use transform="matrix(0.05,0,0,0.05,83.80000000000001,0)" xlink:href="#aD"/></g><g id="n"><use transform="matrix(0.06172839506172839,0,0,0.06172839506172839,0,0)" xlink:href="#V"/><use transform="matrix(0.06172839506172839,0,0,0.06172839506172839,15.987654320987653,0)" xlink:href="#ac"/><use transform="matrix(0.06172839506172839,0,0,0.06172839506172839,28.333333333333332,0)" xlink:href="#Y"/><use transform="matrix(0.06172839506172839,0,0,0.06172839506172839,39.44444444444444,0)" xlink:href="#ab"/><use transform="matrix(0.06172839506172839,0,0,0.06172839506172839,45.617283950617285,0)" xlink:href="#W"/><use transform="matrix(0.06172839506172839,0,0,0.06172839506172839,57.96296296296296,0)" xlink:href="#af"/><use transform="matrix(0.06172839506172839,0,0,0.06172839506172839,76.41975308641975,0)" xlink:href="#Z"/><use transform="matrix(0.06172839506172839,0,0,0.06172839506172839,88.76543209876543,0)" xlink:href="#ai"/></g><g id="o"><use transform="matrix(0.06172839506172839,0,0,0.06172839506172839,0,0)" xlink:href="#ai"/><use transform="matrix(0.06172839506172839,0,0,0.06172839506172839,7.345679012345679,0)" xlink:href="#Z"/><use transform="matrix(0.06172839506172839,0,0,0.06172839506172839,19.691358024691358,0)" xlink:href="#aa"/><use transform="matrix(0.06172839506172839,0,0,0.06172839506172839,32.03703703703704,0)" xlink:href="#ai"/><use transform="matrix(0.06172839506172839,0,0,0.06172839506172839,39.382716049382715,0)" xlink:href="#Z"/><use transform="matrix(0.06172839506172839,0,0,0.06172839506172839,51.72839506172839,0)" xlink:href="#Y"/><use transform="matrix(0.06172839506172839,0,0,0.06172839506172839,62.839506172839506,0)" xlink:href="#Z"/><use transform="matrix(0.06172839506172839,0,0,0.06172839506172839,75.18518518518519,0)" xlink:href="#X"/><use transform="matrix(0.06172839506172839,0,0,0.06172839506172839,87.53086419753087,0)" xlink:href="#ab"/><use transform="matrix(0.06172839506172839,0,0,0.06172839506172839,93.70370370370371,0)" xlink:href="#ad"/><use transform="matrix(0.06172839506172839,0,0,0.06172839506172839,106.0493827160494,0)" xlink:href="#ab"/><use transform="matrix(0.06172839506172839,0,0,0.06172839506172839,112.22222222222223,0)" xlink:href="#ao"/><use transform="matrix(0.06172839506172839,0,0,0.06172839506172839,117.09876543209877,0)" xlink:href="#av"/><use transform="matrix(0.06172839506172839,0,0,0.06172839506172839,128.20987654320987,0)" xlink:href="#Z"/></g><path fill="#333" d="M185-189c-5-48-123-54-124 2 14 75 158 14 163 119 3 78-121 87-175 55-17-10-28-26-33-46l33-7c5 56 141 63 141-1 0-78-155-14-162-118-5-82 145-84 179-34 5 7 8 16 11 25" id="aI"/><g id="p"><use transform="matrix(0.06172839506172839,0,0,0.06172839506172839,0,0)" xlink:href="#aI"/><use transform="matrix(0.06172839506172839,0,0,0.06172839506172839,14.814814814814813,0)" xlink:href="#ab"/><use transform="matrix(0.06172839506172839,0,0,0.06172839506172839,20.98765432098765,0)" xlink:href="#W"/><use transform="matrix(0.06172839506172839,0,0,0.06172839506172839,33.33333333333333,0)" xlink:href="#ai"/><use transform="matrix(0.06172839506172839,0,0,0.06172839506172839,40.679012345679006,0)" xlink:href="#Z"/><use transform="matrix(0.06172839506172839,0,0,0.06172839506172839,53.02469135802468,0)" xlink:href="#ak"/><use transform="matrix(0.06172839506172839,0,0,0.06172839506172839,64.1358024691358,0)" xlink:href="#Z"/><use transform="matrix(0.06172839506172839,0,0,0.06172839506172839,76.48148148148148,0)" xlink:href="#Z"/><use transform="matrix(0.06172839506172839,0,0,0.06172839506172839,88.82716049382717,0)" xlink:href="#aa"/><use transform="matrix(0.06172839506172839,0,0,0.06172839506172839,101.17283950617285,0)" xlink:href="#Z"/><use transform="matrix(0.06172839506172839,0,0,0.06172839506172839,113.51851851851853,0)" xlink:href="#ai"/></g><path fill="#333" d="M96-169c-40 0-48 33-48 73s9 75 48 75c24 0 41-14 43-38l32 2c-6 37-31 61-74 61-59 0-76-41-82-99-10-93 101-131 147-64 4 7 5 14 7 22l-32 3c-4-21-16-35-41-35" id="aJ"/><g id="q"><use transform="matrix(0.06172839506172839,0,0,0.06172839506172839,0,0)" xlink:href="#ah"/><use transform="matrix(0.06172839506172839,0,0,0.06172839506172839,14.814814814814813,0)" xlink:href="#ai"/><use transform="matrix(0.06172839506172839,0,0,0.06172839506172839,22.160493827160494,0)" xlink:href="#W"/><use transform="matrix(0.06172839506172839,0,0,0.06172839506172839,34.50617283950617,0)" xlink:href="#ag"/><use transform="matrix(0.06172839506172839,0,0,0.06172839506172839,46.85185185185185,0)" xlink:href="#ac"/><use transform="matrix(0.06172839506172839,0,0,0.06172839506172839,59.197530864197525,0)" xlink:href="#aJ"/><use transform="matrix(0.06172839506172839,0,0,0.06172839506172839,70.30864197530863,0)" xlink:href="#ab"/><use transform="matrix(0.06172839506172839,0,0,0.06172839506172839,76.48148148148147,0)" xlink:href="#ao"/><use transform="matrix(0.06172839506172839,0,0,0.06172839506172839,81.35802469135801,0)" xlink:href="#W"/><use transform="matrix(0.06172839506172839,0,0,0.06172839506172839,93.7037037037037,0)" xlink:href="#X"/></g><g id="r"><use transform="matrix(0.06172839506172839,0,0,0.06172839506172839,0,0)" xlink:href="#aa"/><use transform="matrix(0.06172839506172839,0,0,0.06172839506172839,12.345679012345679,0)" xlink:href="#ae"/><use transform="matrix(0.06172839506172839,0,0,0.06172839506172839,17.22222222222222,0)" xlink:href="#ad"/><use transform="matrix(0.06172839506172839,0,0,0.06172839506172839,29.5679012345679,0)" xlink:href="#X"/><use transform="matrix(0.06172839506172839,0,0,0.06172839506172839,41.913580246913575,0)" xlink:href="#X"/><use transform="matrix(0.06172839506172839,0,0,0.06172839506172839,54.25925925925925,0)" xlink:href="#Z"/><use transform="matrix(0.06172839506172839,0,0,0.06172839506172839,66.60493827160494,0)" xlink:href="#ai"/><use transform="matrix(0.06172839506172839,0,0,0.06172839506172839,73.95061728395062,0)" xlink:href="#Y"/></g><path d="M136-208V0H84v-208H4v-40h212v40h-80" id="aK"/><path d="M133-34C117-15 103 5 69 4 32 3 11-16 11-54c-1-60 55-63 116-61 1-26-3-47-28-47-18 1-26 9-28 27l-52-2c7-38 36-58 82-57s74 22 75 68l1 82c-1 14 12 18 25 15v27c-30 8-71 5-69-32zm-48 3c29 0 43-24 42-57-32 0-66-3-65 30 0 17 8 27 23 27" id="aL"/><path d="M135-194c87-1 58 113 63 194h-50c-7-57 23-157-34-157-59 0-34 97-39 157H25l-1-190h47c2 12-1 28 3 38 12-26 28-41 61-42" id="aM"/><g id="s"><use transform="matrix(0.05,0,0,0.05,0,0)" xlink:href="#aK"/><use transform="matrix(0.05,0,0,0.05,9.950000000000001,0)" xlink:href="#aH"/><use transform="matrix(0.05,0,0,0.05,16.950000000000003,0)" xlink:href="#aL"/><use transform="matrix(0.05,0,0,0.05,26.950000000000003,0)" xlink:href="#aM"/><use transform="matrix(0.05,0,0,0.05,37.900000000000006,0)" xlink:href="#aD"/><use transform="matrix(0.05,0,0,0.05,47.900000000000006,0)" xlink:href="#ay"/><use transform="matrix(0.05,0,0,0.05,58.85,0)" xlink:href="#aA"/><use transform="matrix(0.05,0,0,0.05,69.80000000000001,0)" xlink:href="#aH"/><use transform="matrix(0.05,0,0,0.05,76.80000000000001,0)" xlink:href="#aG"/><use transform="matrix(0.05,0,0,0.05,82.75000000000001,0)" xlink:href="#aC"/><use transform="matrix(0.05,0,0,0.05,92.75000000000001,0)" xlink:href="#aH"/><use transform="matrix(0.05,0,0,0.05,99.75000000000001,0)" xlink:href="#aD"/></g><path d="M24-248c93 1 206-16 204 79-1 75-69 88-152 82V0H24v-248zm52 121c47 0 100 7 100-41 0-47-54-39-100-39v80" id="aN"/><path d="M88-194c31-1 46 15 58 34l-1-101h50l1 261h-48c-2-10 0-23-3-31C134-8 116 4 84 4 32 4 16-41 15-95c0-56 19-97 73-99zm17 164c33 0 40-30 41-66 1-37-9-64-41-64s-38 30-39 65c0 43 13 65 39 65" id="aO"/><path d="M190-63c-7 42-38 67-86 67-59 0-84-38-90-98-12-110 154-137 174-36l-49 2c-2-19-15-32-35-32-30 0-35 28-38 64-6 74 65 87 74 30" id="aP"/><g id="t"><use transform="matrix(0.05,0,0,0.05,0,0)" xlink:href="#aN"/><use transform="matrix(0.05,0,0,0.05,12,0)" xlink:href="#aH"/><use transform="matrix(0.05,0,0,0.05,19,0)" xlink:href="#aA"/><use transform="matrix(0.05,0,0,0.05,29.950000000000003,0)" xlink:href="#aO"/><use transform="matrix(0.05,0,0,0.05,40.900000000000006,0)" xlink:href="#aF"/><use transform="matrix(0.05,0,0,0.05,51.85,0)" xlink:href="#aP"/><use transform="matrix(0.05,0,0,0.05,61.85,0)" xlink:href="#aG"/></g><path d="M24 0v-248h52V0H24" id="aQ"/><path d="M25-224v-37h50v37H25zM25 0v-190h50V0H25" id="aR"/><path d="M128 0H69L1-190h53L99-40l48-150h52" id="aS"/><g id="u"><use transform="matrix(0.05,0,0,0.05,0,0)" xlink:href="#aQ"/><use transform="matrix(0.05,0,0,0.05,5,0)" xlink:href="#aM"/><use transform="matrix(0.05,0,0,0.05,15.950000000000001,0)" xlink:href="#aO"/><use transform="matrix(0.05,0,0,0.05,26.900000000000002,0)" xlink:href="#aR"/><use transform="matrix(0.05,0,0,0.05,31.900000000000002,0)" xlink:href="#aS"/><use transform="matrix(0.05,0,0,0.05,41.900000000000006,0)" xlink:href="#aR"/><use transform="matrix(0.05,0,0,0.05,46.900000000000006,0)" xlink:href="#aO"/><use transform="matrix(0.05,0,0,0.05,57.85,0)" xlink:href="#aF"/><use transform="matrix(0.05,0,0,0.05,68.80000000000001,0)" xlink:href="#aL"/><use transform="matrix(0.05,0,0,0.05,78.80000000000001,0)" xlink:href="#az"/></g><g id="v"><use transform="matrix(0.05,0,0,0.05,0,0)" xlink:href="#aD"/><use transform="matrix(0.05,0,0,0.05,10,0)" xlink:href="#aG"/><use transform="matrix(0.05,0,0,0.05,15.949999999999998,0)" xlink:href="#aA"/><use transform="matrix(0.05,0,0,0.05,26.899999999999995,0)" xlink:href="#aH"/><use transform="matrix(0.05,0,0,0.05,33.9,0)" xlink:href="#aC"/><use transform="matrix(0.05,0,0,0.05,43.9,0)" xlink:href="#aD"/></g><path d="M140-251c80 0 125 45 125 126S219 4 139 4C58 4 15-44 15-125s44-126 125-126zm-1 214c52 0 73-35 73-88 0-50-21-86-72-86-52 0-73 35-73 86s22 88 72 88" id="aT"/><g id="w"><use transform="matrix(0.05,0,0,0.05,0,0)" xlink:href="#aT"/><use transform="matrix(0.05,0,0,0.05,14,0)" xlink:href="#aH"/><use transform="matrix(0.05,0,0,0.05,21,0)" xlink:href="#aO"/><use transform="matrix(0.05,0,0,0.05,31.950000000000003,0)" xlink:href="#aC"/><use transform="matrix(0.05,0,0,0.05,41.95,0)" xlink:href="#aH"/><use transform="matrix(0.05,0,0,0.05,48.95,0)" xlink:href="#aD"/></g><g id="x"><use transform="matrix(0.05,0,0,0.05,0,0)" xlink:href="#aK"/><use transform="matrix(0.05,0,0,0.05,9.600000000000001,0)" xlink:href="#aC"/><use transform="matrix(0.05,0,0,0.05,19.6,0)" xlink:href="#aL"/><use transform="matrix(0.05,0,0,0.05,29.6,0)" xlink:href="#ax"/></g><path d="M147 0L96-86 75-71V0H25v-261h50v150l67-79h53l-66 74L201 0h-54" id="aU"/><g id="y"><use transform="matrix(0.05,0,0,0.05,0,0)" xlink:href="#aD"/><use transform="matrix(0.05,0,0,0.05,10,0)" xlink:href="#aU"/><use transform="matrix(0.05,0,0,0.05,20,0)" xlink:href="#aR"/><use transform="matrix(0.05,0,0,0.05,25,0)" xlink:href="#aC"/><use transform="matrix(0.05,0,0,0.05,35,0)" xlink:href="#aH"/><use transform="matrix(0.05,0,0,0.05,42,0)" xlink:href="#aD"/></g><path d="M76-208v77h127v40H76V0H24v-248h183v40H76" id="aV"/><path d="M114-157C55-157 80-60 75 0H25v-261h50l-1 109c12-26 28-41 61-42 86-1 58 113 63 194h-50c-7-57 23-157-34-157" id="aW"/><g id="z"><use transform="matrix(0.05,0,0,0.05,0,0)" xlink:href="#aV"/><use transform="matrix(0.05,0,0,0.05,10.950000000000001,0)" xlink:href="#aH"/><use transform="matrix(0.05,0,0,0.05,17.950000000000003,0)" xlink:href="#aL"/><use transform="matrix(0.05,0,0,0.05,27.950000000000003,0)" xlink:href="#aM"/><use transform="matrix(0.05,0,0,0.05,38.900000000000006,0)" xlink:href="#aP"/><use transform="matrix(0.05,0,0,0.05,48.900000000000006,0)" xlink:href="#aW"/><use transform="matrix(0.05,0,0,0.05,59.85,0)" xlink:href="#aR"/><use transform="matrix(0.05,0,0,0.05,64.85000000000001,0)" xlink:href="#aD"/><use transform="matrix(0.05,0,0,0.05,74.85000000000001,0)" xlink:href="#aC"/><use transform="matrix(0.05,0,0,0.05,84.85000000000001,0)" xlink:href="#aD"/></g><path d="M14-72v-43h91v43H14" id="aX"/><g id="A"><use transform="matrix(0.05,0,0,0.05,0,0)" xlink:href="#aN"/><use transform="matrix(0.05,0,0,0.05,12,0)" xlink:href="#aH"/><use transform="matrix(0.05,0,0,0.05,19,0)" xlink:href="#aA"/><use transform="matrix(0.05,0,0,0.05,29.950000000000003,0)" xlink:href="#aO"/><use transform="matrix(0.05,0,0,0.05,40.900000000000006,0)" xlink:href="#aF"/><use transform="matrix(0.05,0,0,0.05,51.85,0)" xlink:href="#aP"/><use transform="matrix(0.05,0,0,0.05,61.85,0)" xlink:href="#aG"/><use transform="matrix(0.05,0,0,0.05,67.80000000000001,0)" xlink:href="#aR"/><use transform="matrix(0.05,0,0,0.05,72.80000000000001,0)" xlink:href="#aA"/><use transform="matrix(0.05,0,0,0.05,83.75000000000001,0)" xlink:href="#aM"/><use transform="matrix(0.05,0,0,0.05,94.70000000000002,0)" xlink:href="#aX"/><use transform="matrix(0.05,0,0,0.05,100.65000000000002,0)" xlink:href="#aN"/><use transform="matrix(0.05,0,0,0.05,112.65000000000003,0)" xlink:href="#az"/><use transform="matrix(0.05,0,0,0.05,117.65000000000003,0)" xlink:href="#aL"/><use transform="matrix(0.05,0,0,0.05,127.65000000000003,0)" xlink:href="#aM"/></g><path d="M169-182c-1-43-94-46-97-3 18 66 151 10 154 114 3 95-165 93-204 36-6-8-10-19-12-30l50-8c3 46 112 56 116 5-17-69-150-10-154-114-4-87 153-88 188-35 5 8 8 18 10 28" id="aY"/><path d="M121-226c-27-7-43 5-38 36h38v33H83V0H34v-157H6v-33h28c-9-59 32-81 87-68v32" id="aZ"/><g id="B"><use transform="matrix(0.08086419753086417,0,0,0.08086419753086417,0,0)" xlink:href="#aY"/><use transform="matrix(0.08086419753086417,0,0,0.08086419753086417,19.4074074074074,0)" xlink:href="#aU"/><use transform="matrix(0.08086419753086417,0,0,0.08086419753086417,35.58024691358024,0)" xlink:href="#aR"/><use transform="matrix(0.08086419753086417,0,0,0.08086419753086417,43.666666666666664,0)" xlink:href="#aX"/><use transform="matrix(0.08086419753086417,0,0,0.08086419753086417,53.289506172839495,0)" xlink:href="#aZ"/><use transform="matrix(0.08086419753086417,0,0,0.08086419753086417,62.91234567901233,0)" xlink:href="#aL"/><use transform="matrix(0.08086419753086417,0,0,0.08086419753086417,79.08518518518517,0)" xlink:href="#aP"/><use transform="matrix(0.08086419753086417,0,0,0.08086419753086417,95.25802469135802,0)" xlink:href="#aG"/><use transform="matrix(0.08086419753086417,0,0,0.08086419753086417,104.88086419753085,0)" xlink:href="#aA"/><use transform="matrix(0.08086419753086417,0,0,0.08086419753086417,122.5901234567901,0)" xlink:href="#aH"/><use transform="matrix(0.08086419753086417,0,0,0.08086419753086417,133.91111111111107,0)" xlink:href="#aB"/></g><path fill="#333" d="M140-251c80 0 125 45 125 126S219 4 139 4C58 4 15-44 15-125s44-126 125-126zm-1 214c52 0 73-35 73-88 0-50-21-86-72-86-52 0-73 35-73 86s22 88 72 88" id="ba"/><path fill="#333" d="M135-150c-39-12-60 13-60 57V0H25l-1-190h47c2 13-1 29 3 40 6-28 27-53 61-41v41" id="bb"/><path fill="#333" d="M88-194c31-1 46 15 58 34l-1-101h50l1 261h-48c-2-10 0-23-3-31C134-8 116 4 84 4 32 4 16-41 15-95c0-56 19-97 73-99zm17 164c33 0 40-30 41-66 1-37-9-64-41-64s-38 30-39 65c0 43 13 65 39 65" id="bc"/><path fill="#333" d="M185-48c-13 30-37 53-82 52C43 2 14-33 14-96s30-98 90-98c62 0 83 45 84 108H66c0 31 8 55 39 56 18 0 30-7 34-22zm-45-69c5-46-57-63-70-21-2 6-4 13-4 21h74" id="bd"/><path fill="#333" d="M137-138c1-29-70-34-71-4 15 46 118 7 119 86 1 83-164 76-172 9l43-7c4 19 20 25 44 25 33 8 57-30 24-41C81-84 22-81 20-136c-2-80 154-74 161-7" id="be"/><g id="C"><use transform="matrix(0.04938271604938272,0,0,0.04938271604938272,0,0)" xlink:href="#ba"/><use transform="matrix(0.04938271604938272,0,0,0.04938271604938272,13.827160493827162,0)" xlink:href="#bb"/><use transform="matrix(0.04938271604938272,0,0,0.04938271604938272,20.74074074074074,0)" xlink:href="#bc"/><use transform="matrix(0.04938271604938272,0,0,0.04938271604938272,31.555555555555557,0)" xlink:href="#bd"/><use transform="matrix(0.04938271604938272,0,0,0.04938271604938272,41.4320987654321,0)" xlink:href="#bb"/><use transform="matrix(0.04938271604938272,0,0,0.04938271604938272,48.345679012345684,0)" xlink:href="#be"/></g><path fill="#333" d="M121-226c-27-7-43 5-38 36h38v33H83V0H34v-157H6v-33h28c-9-59 32-81 87-68v32" id="bf"/><path fill="#333" d="M110-194c64 0 96 36 96 99 0 64-35 99-97 99-61 0-95-36-95-99 0-62 34-99 96-99zm-1 164c35 0 45-28 45-65 0-40-10-65-43-65-34 0-45 26-45 65 0 36 10 65 43 65" id="bg"/><path fill="#333" d="M220-157c-53 9-28 100-34 157h-49v-107c1-27-5-49-29-50C55-147 81-57 75 0H25l-1-190h47c2 12-1 28 3 38 10-53 101-56 108 0 13-22 24-43 59-42 82 1 51 116 57 194h-49v-107c-1-25-5-48-29-50" id="bh"/><g id="D"><use transform="matrix(0.04938271604938272,0,0,0.04938271604938272,0,0)" xlink:href="#bf"/><use transform="matrix(0.04938271604938272,0,0,0.04938271604938272,5.8765432098765435,0)" xlink:href="#bb"/><use transform="matrix(0.04938271604938272,0,0,0.04938271604938272,12.790123456790125,0)" xlink:href="#bg"/><use transform="matrix(0.04938271604938272,0,0,0.04938271604938272,23.604938271604937,0)" xlink:href="#bh"/></g><g id="E"><use transform="matrix(0.05,0,0,0.05,0,0)" xlink:href="#aY"/><use transform="matrix(0.05,0,0,0.05,12,0)" xlink:href="#aW"/><use transform="matrix(0.05,0,0,0.05,22.950000000000003,0)" xlink:href="#aR"/><use transform="matrix(0.05,0,0,0.05,27.950000000000003,0)" xlink:href="#ay"/><use transform="matrix(0.05,0,0,0.05,38.900000000000006,0)" xlink:href="#ax"/><use transform="matrix(0.05,0,0,0.05,54.900000000000006,0)" xlink:href="#aC"/><use transform="matrix(0.05,0,0,0.05,64.9,0)" xlink:href="#aM"/><use transform="matrix(0.05,0,0,0.05,75.85000000000001,0)" xlink:href="#aG"/><use transform="matrix(0.05,0,0,0.05,81.80000000000001,0)" xlink:href="#aD"/></g><path fill="#333" d="M67-125c0 54 23 88 75 88 28 0 53-7 68-21v-34h-60v-39h108v91C232-14 192 4 140 4 58 4 20-42 15-125 8-236 126-280 215-234c19 10 29 26 37 47l-47 15c-11-23-29-39-63-39-53 1-75 33-75 86" id="bi"/><path fill="#333" d="M115-3C79 11 28 4 28-45v-112H4v-33h27l15-45h31v45h36v33H77v99c-1 23 16 31 38 25v30" id="bj"/><g id="F"><use transform="matrix(0.04938271604938272,0,0,0.04938271604938272,0,0)" xlink:href="#bi"/><use transform="matrix(0.04938271604938272,0,0,0.04938271604938272,13.827160493827162,0)" xlink:href="#bd"/><use transform="matrix(0.04938271604938272,0,0,0.04938271604938272,23.703703703703706,0)" xlink:href="#bj"/><use transform="matrix(0.04938271604938272,0,0,0.04938271604938272,29.58024691358025,0)" xlink:href="#be"/></g><path fill="#333" d="M114-157C55-157 80-60 75 0H25v-261h50l-1 109c12-26 28-41 61-42 86-1 58 113 63 194h-50c-7-57 23-157-34-157" id="bk"/><path fill="#333" d="M25 0v-261h50V0H25" id="bl"/><path fill="#333" d="M135-194c53 0 70 44 70 98 0 56-19 98-73 100-31 1-45-17-59-34 3 33 2 69 2 105H25l-1-265h48c2 10 0 23 3 31 11-24 29-35 60-35zM114-30c33 0 39-31 40-66 0-38-9-64-40-64-56 0-55 130 0 130" id="bm"/><g id="G"><use transform="matrix(0.04938271604938272,0,0,0.04938271604938272,0,0)" xlink:href="#bk"/><use transform="matrix(0.04938271604938272,0,0,0.04938271604938272,10.814814814814815,0)" xlink:href="#bd"/><use transform="matrix(0.04938271604938272,0,0,0.04938271604938272,20.69135802469136,0)" xlink:href="#bl"/><use transform="matrix(0.04938271604938272,0,0,0.04938271604938272,25.629629629629633,0)" xlink:href="#bm"/></g><g id="H"><use transform="matrix(0.04938271604938272,0,0,0.04938271604938272,0,0)" xlink:href="#bf"/><use transform="matrix(0.04938271604938272,0,0,0.04938271604938272,5.8765432098765435,0)" xlink:href="#bb"/><use transform="matrix(0.04938271604938272,0,0,0.04938271604938272,12.790123456790125,0)" xlink:href="#bg"/><use transform="matrix(0.04938271604938272,0,0,0.04938271604938272,23.604938271604937,0)" xlink:href="#bh"/></g><path fill="#333" d="M25-224v-37h50v37H25zM25 0v-190h50V0H25" id="bn"/><g id="I"><use transform="matrix(0.04938271604938272,0,0,0.04938271604938272,0,0)" xlink:href="#be"/><use transform="matrix(0.04938271604938272,0,0,0.04938271604938272,9.876543209876544,0)" xlink:href="#bk"/><use transform="matrix(0.04938271604938272,0,0,0.04938271604938272,20.69135802469136,0)" xlink:href="#bn"/><use transform="matrix(0.04938271604938272,0,0,0.04938271604938272,25.629629629629633,0)" xlink:href="#bm"/><use transform="matrix(0.04938271604938272,0,0,0.04938271604938272,36.44444444444445,0)" xlink:href="#bm"/><use transform="matrix(0.04938271604938272,0,0,0.04938271604938272,47.25925925925927,0)" xlink:href="#bd"/><use transform="matrix(0.04938271604938272,0,0,0.04938271604938272,57.135802469135804,0)" xlink:href="#bc"/></g><path fill="#333" d="M135-194c52 0 70 43 70 98 0 56-19 99-73 100-30 1-46-15-58-35L72 0H24l1-261h50v104c11-23 29-37 60-37zM114-30c31 0 40-27 40-66 0-37-7-63-39-63s-41 28-41 65c0 36 8 64 40 64" id="bo"/><path fill="#333" d="M123 10C108 53 80 86 19 72V37c35 8 53-11 59-39L3-190h52l48 148c12-52 28-100 44-148h51" id="bp"/><g id="J"><use transform="matrix(0.04938271604938272,0,0,0.04938271604938272,0,0)" xlink:href="#bo"/><use transform="matrix(0.04938271604938272,0,0,0.04938271604938272,10.814814814814815,0)" xlink:href="#bp"/></g><path fill="#333" d="M230 0l2-204L168 0h-37L68-204 70 0H24v-248h70l56 185 57-185h69V0h-46" id="bq"/><path fill="#333" d="M133-34C117-15 103 5 69 4 32 3 11-16 11-54c-1-60 55-63 116-61 1-26-3-47-28-47-18 1-26 9-28 27l-52-2c7-38 36-58 82-57s74 22 75 68l1 82c-1 14 12 18 25 15v27c-30 8-71 5-69-32zm-48 3c29 0 43-24 42-57-32 0-66-3-65 30 0 17 8 27 23 27" id="br"/><path fill="#333" d="M147 0L96-86 75-71V0H25v-261h50v150l67-79h53l-66 74L201 0h-54" id="bs"/><g id="K"><use transform="matrix(0.04938271604938272,0,0,0.04938271604938272,0,0)" xlink:href="#bq"/><use transform="matrix(0.04938271604938272,0,0,0.04938271604938272,14.765432098765434,0)" xlink:href="#br"/><use transform="matrix(0.04938271604938272,0,0,0.04938271604938272,24.641975308641978,0)" xlink:href="#bs"/><use transform="matrix(0.04938271604938272,0,0,0.04938271604938272,34.51851851851852,0)" xlink:href="#bd"/><use transform="matrix(0.04938271604938272,0,0,0.04938271604938272,44.39506172839506,0)" xlink:href="#be"/></g><g id="L"><use transform="matrix(0.04938271604938272,0,0,0.04938271604938272,0,0)" xlink:href="#bf"/><use transform="matrix(0.04938271604938272,0,0,0.04938271604938272,5.8765432098765435,0)" xlink:href="#bg"/><use transform="matrix(0.04938271604938272,0,0,0.04938271604938272,16.691358024691358,0)" xlink:href="#bb"/></g><path fill="#333" d="M232-93c-1 65-40 97-104 97C67 4 28-28 28-90v-158h33c8 89-33 224 67 224 102 0 64-133 71-224h33v155" id="bt"/><g id="M"><use transform="matrix(0.06172839506172839,0,0,0.06172839506172839,0,0)" xlink:href="#bt"/><use transform="matrix(0.06172839506172839,0,0,0.06172839506172839,15.987654320987653,0)" xlink:href="#aa"/><use transform="matrix(0.06172839506172839,0,0,0.06172839506172839,28.333333333333332,0)" xlink:href="#ag"/><use transform="matrix(0.06172839506172839,0,0,0.06172839506172839,40.67901234567901,0)" xlink:href="#ad"/><use transform="matrix(0.06172839506172839,0,0,0.06172839506172839,53.02469135802469,0)" xlink:href="#ab"/><use transform="matrix(0.06172839506172839,0,0,0.06172839506172839,59.19753086419753,0)" xlink:href="#Z"/><use transform="matrix(0.06172839506172839,0,0,0.06172839506172839,71.54320987654322,0)" xlink:href="#Y"/></g><g id="N"><use transform="matrix(0.04938271604938272,0,0,0.04938271604938272,0,0)" xlink:href="#bk"/><use transform="matrix(0.04938271604938272,0,0,0.04938271604938272,10.814814814814815,0)" xlink:href="#br"/><use transform="matrix(0.04938271604938272,0,0,0.04938271604938272,20.69135802469136,0)" xlink:href="#be"/></g><g id="O"><use transform="matrix(0.06172839506172839,0,0,0.06172839506172839,0,0)" xlink:href="#ah"/><use transform="matrix(0.06172839506172839,0,0,0.06172839506172839,14.814814814814813,0)" xlink:href="#ai"/><use transform="matrix(0.06172839506172839,0,0,0.06172839506172839,22.160493827160494,0)" xlink:href="#W"/><use transform="matrix(0.06172839506172839,0,0,0.06172839506172839,34.50617283950617,0)" xlink:href="#ag"/><use transform="matrix(0.06172839506172839,0,0,0.06172839506172839,46.85185185185185,0)" xlink:href="#ac"/><use transform="matrix(0.06172839506172839,0,0,0.06172839506172839,59.197530864197525,0)" xlink:href="#aJ"/><use transform="matrix(0.06172839506172839,0,0,0.06172839506172839,70.30864197530863,0)" xlink:href="#Z"/><use transform="matrix(0.06172839506172839,0,0,0.06172839506172839,82.65432098765432,0)" xlink:href="#Y"/></g><path fill="#333" d="M39-94c74 12-11 154 75 146v23c-44 4-70-10-70-52C44-23 55-84 6-82v-22c81 4-7-162 84-157h24v23c-82-15-2 131-75 144" id="bu"/><path fill="#333" d="M140-251c81 0 123 46 123 126C263-46 219 4 140 4 59 4 17-45 17-125s42-126 123-126zm0 227c63 0 89-41 89-101s-29-99-89-99c-61 0-89 39-89 99S79-25 140-24" id="bv"/><g id="P"><use transform="matrix(0.06172839506172839,0,0,0.06172839506172839,0,0)" xlink:href="#bu"/><use transform="matrix(0.06172839506172839,0,0,0.06172839506172839,7.4074074074074066,0)" xlink:href="#bv"/><use transform="matrix(0.06172839506172839,0,0,0.06172839506172839,24.691358024691354,0)" xlink:href="#aa"/><use transform="matrix(0.06172839506172839,0,0,0.06172839506172839,37.03703703703703,0)" xlink:href="#ab"/><use transform="matrix(0.06172839506172839,0,0,0.06172839506172839,43.20987654320987,0)" xlink:href="#ao"/><use transform="matrix(0.06172839506172839,0,0,0.06172839506172839,48.08641975308642,0)" xlink:href="#W"/><use transform="matrix(0.06172839506172839,0,0,0.06172839506172839,60.432098765432094,0)" xlink:href="#X"/><use transform="matrix(0.06172839506172839,0,0,0.06172839506172839,72.77777777777777,0)" xlink:href="#ad"/><use transform="matrix(0.06172839506172839,0,0,0.06172839506172839,85.12345679012346,0)" xlink:href="#ae"/><use transform="matrix(0.06172839506172839,0,0,0.06172839506172839,90,0)" xlink:href="#as"/></g><path fill="#333" d="M76-40C78 24 84 88 6 75V52C86 64 9-79 80-94c-40-6-34-59-34-106 1-29-11-41-40-38v-23c44-4 70 10 70 52 0 47-12 108 38 105v22c-26 1-39 14-38 42" id="bw"/><g id="Q"><use transform="matrix(0.06172839506172839,0,0,0.06172839506172839,0,0)" xlink:href="#bv"/><use transform="matrix(0.06172839506172839,0,0,0.06172839506172839,17.28395061728395,0)" xlink:href="#ai"/><use transform="matrix(0.06172839506172839,0,0,0.06172839506172839,24.629629629629626,0)" xlink:href="#bw"/></g><use transform="matrix(0.06172839506172839,0,0,0.06172839506172839,0,0)" xlink:href="#bu" id="R"/><path fill="#333" d="M179-190L93 31C79 59 56 82 12 73V49c39 6 53-20 64-50L1-190h34L92-34l54-156h33" id="bx"/><g id="S"><use transform="matrix(0.06172839506172839,0,0,0.06172839506172839,0,0)" xlink:href="#aq"/><use transform="matrix(0.06172839506172839,0,0,0.06172839506172839,18.456790123456788,0)" xlink:href="#ad"/><use transform="matrix(0.06172839506172839,0,0,0.06172839506172839,30.80246913580247,0)" xlink:href="#X"/><use transform="matrix(0.06172839506172839,0,0,0.06172839506172839,43.148148148148145,0)" xlink:href="#ag"/><use transform="matrix(0.06172839506172839,0,0,0.06172839506172839,55.49382716049382,0)" xlink:href="#ad"/><use transform="matrix(0.06172839506172839,0,0,0.06172839506172839,67.8395061728395,0)" xlink:href="#ab"/><use transform="matrix(0.06172839506172839,0,0,0.06172839506172839,74.01234567901234,0)" xlink:href="#W"/><use transform="matrix(0.06172839506172839,0,0,0.06172839506172839,86.35802469135803,0)" xlink:href="#ai"/><use transform="matrix(0.06172839506172839,0,0,0.06172839506172839,93.70370370370371,0)" xlink:href="#bx"/><use transform="matrix(0.06172839506172839,0,0,0.06172839506172839,103.14814814814815,0)" xlink:href="#as"/></g><g id="T"><use transform="matrix(0.06172839506172839,0,0,0.06172839506172839,0,0)" xlink:href="#bv"/><use transform="matrix(0.06172839506172839,0,0,0.06172839506172839,17.28395061728395,0)" xlink:href="#ai"/></g><use transform="matrix(0.06172839506172839,0,0,0.06172839506172839,0,0)" xlink:href="#bw" id="U"/></defs></g></svg>